<svg id="logo-mobile" xmlns="http://www.w3.org/2000/svg" viewBox="0 0 581 180"><defs><style>.cls-1{fill:#fff;}.cls-2{fill:#43418e;}</style></defs><rect class="cls-1" width="581" height="180"/><g id="Symbols"><g id="Group"><g id="p3-purple"><path id="Combined-Shape" class="cls-2" d="M0,180V0H581V180ZM399.78,8.23H8.29V171.77H399.78ZM260.09,72.37c6.72,0,11.6,2.32,14.91,6.1h0V73.82h15v49.7H275v-4.65c-3.31,3.78-8.19,6.1-14.91,6.1-13.07,0-24-11.53-24-26.35S246.92,72.37,260.09,72.37Zm62.58.1a26.25,26.25,0,1,1,0,52.5c-14.82,0-26.52-11.43-26.52-26.25A26.14,26.14,0,0,1,322.67,72.47Zm-194.19,0A26.25,26.25,0,1,1,102,98.72,26.14,26.14,0,0,1,128.48,72.47Zm91.83-12.6V73.82h10.24V88.16H220.21v17.63c0,4.26,3.71,4.65,10.34,4.26h0v13.57c-19.6,2-25.35-3.88-25.35-17.83h.1V88.16h-8V73.82h8V64.33Zm270-5.91c-17.06,0-22.91,10.27-23.88,18.6h14c.69-3.39,2.34-7.17,9.27-7.17,5.94,0,8.67,3.1,8.67,7.75,0,5.62-2.73,7.85-9.55,7.85h-5.36V92.33h6.14c7.89,0,11.11,3.77,11.11,10.07,0,6-3.41,10.37-10.23,10.37-7,0-10.24-4-11.12-8.63H465c.78,8.92,6.93,19.86,25.16,19.86,19.59,0,25.54-11.62,25.54-21.31,0-10.46-6.63-14.63-11-16.27h0v-.3c3.71-1.74,8.38-5.61,8.38-13.75C513.05,62.78,506.13,54,490.34,54ZM191.07,72.85v17c-6.24-1-15,1.45-15,11.33h0v22.57H161V73.92h15v8.81c1.95-6.68,8.68-9.88,15-9.88Zm-113.18-19c13.84,0,24.56,10.66,24.56,23.93s-10.72,23.93-24.56,23.93H67.36v21.8h-16V53.86ZM263.11,86.61c-6.92,0-11.9,4.65-11.9,12.11s5,12.11,11.9,12.11S275,106.18,275,98.72,270,86.61,263.11,86.61Zm59.56.39a11.09,11.09,0,0,0-11.5,11.72c0,7.07,5,11.72,11.5,11.72s11.5-4.65,11.5-11.72S329.2,87,322.67,87ZM128.48,87C122,87,117,91.65,117,98.72s5,11.72,11.5,11.72S140,105.79,140,98.72,135,87,128.48,87ZM77.89,68.88H67.36V86.71H77.89c4.87,0,8.48-3.88,8.48-8.92s-3.61-8.91-8.48-8.91Zm168.35-.29c0-17.05,10.43-18.89,19.6-13.27,3.41,2,4.29,1.55,4.29-2.42h12c0,17.05-10.43,18.89-19.6,13.27-3.41-2.13-4.29-1.65-4.29,2.42h-12Z"/></g></g></g></svg>
